<svg id="Layer_1" data-name="Layer 1" xmlns="http://www.w3.org/2000/svg" viewBox="0 0 458.29 124"><defs><style>.cls-1{fill:#2d3748;}</style></defs><path class="cls-1" d="M100.46,43.13v46.8a2.22,2.22,0,0,1-2.16,2.16H83.9c-.29,0-.57-.15-.86-.15L20.4,123.62a2.24,2.24,0,0,1-2.88-1,2.15,2.15,0,0,1,.86-2.88l63.36-32V45.43H1.68A2,2,0,0,1-.48,43.27a2.12,2.12,0,0,1,2.16-2.16H81.89a9.43,9.43,0,0,1,9.21-7.34A9.33,9.33,0,0,1,100.46,43.13Zm1.73-27.22A2,2,0,0,1,100,18.07H2A2.12,2.12,0,0,1-.19,15.91,2.22,2.22,0,0,1,2,13.75H100A2.12,2.12,0,0,1,102.19,15.91Z" transform="translate(0.48 0.22)"/><path class="cls-1" d="M106.64,16.06a2.12,2.12,0,0,1,2.16-2.16h78.77a9.38,9.38,0,0,1,18.57,1.87V81.29A2.22,2.22,0,0,1,204,83.45H189.73l-62.07,40a2.1,2.1,0,0,1-2.88-.72,2,2,0,0,1,.58-2.88L187.42,79.7V18.22H108.8A2.22,2.22,0,0,1,106.64,16.06Zm123.84-6a10.3,10.3,0,0,1-20.59,0,10.3,10.3,0,0,1,20.59,0Zm-4.32,0a6,6,0,1,0-5.91,5.9A5.94,5.94,0,0,0,226.16,10Z" transform="translate(0.48 0.22)"/><path class="cls-1" d="M235.38,54.07v-38a9.43,9.43,0,0,1,9.36-9.36,9.33,9.33,0,0,1,9.36,9.36V52.77l15.56,14.84a2.23,2.23,0,0,1,.14,3,2.42,2.42,0,0,1-3.17.14L251.51,56.23h-14A2.22,2.22,0,0,1,235.38,54.07ZM334.46,76H320.77l-59.61,47.37a2.1,2.1,0,0,1-3-.43,2.23,2.23,0,0,1,.28-3l59.47-47.09V13.32a9.36,9.36,0,1,1,18.72,0V73.8A2.12,2.12,0,0,1,334.46,76Z" transform="translate(0.48 0.22)"/><path class="cls-1" d="M360.5,99.14l-20.31,23.47a2.15,2.15,0,0,1-3.31-2.73L357,96.55V20.38a9.36,9.36,0,0,1,18.72,0V97a2.22,2.22,0,0,1-2.16,2.16Zm96.91-17a2.15,2.15,0,0,1-.58,3L415.5,114v5.62a2.12,2.12,0,0,1-2.16,2.16h-14.4a2.22,2.22,0,0,1-2.16-2.16V12.89a9.43,9.43,0,0,1,9.36-9.36,9.33,9.33,0,0,1,9.36,9.36v95.76l38.88-27.08A2.14,2.14,0,0,1,457.41,82.15Z" transform="translate(0.48 0.22)"/></svg>